<svg xmlns="http://www.w3.org/2000/svg" version="1.1" xmlns:xlink="http://www.w3.org/1999/xlink" width="512" height="512" x="0" y="0" viewBox="0 0 195 195" style="enable-background:new 0 0 512 512" xml:space="preserve" class=""><g><path d="M156.3 117.8v2.2H22.1l-.2-.8c-1.8-8.8 2-16.5 9.9-20 5.4-2.4 11-4.5 16.4-6.5l2.1-.8c1.5-.6 3.2-.6 4.8-.6h67.2c4.9 0 9.2 1.6 12.9 3.1 3.5 1.4 7 3 10.8 4.8 6.7 3.1 10.2 8.6 10.3 16.2zM173.5 68.9c0-2.3-1.4-3.6-3.6-3.7H163.6c-2.5 0-4.6 0-6.6.1-1 0-2.8.6-3.4 1.7-.4.7-.7.8-1.6.8-5.9 0-11.8-.1-17.8-.1h-17.8c-.1-.4-.2-.9-.2-1.3-.3-1.5-.5-2.8-1-4.1-2.2-5.7-6.9-9.5-13-10.5v-3.7c0-1.8-1.5-3.3-3.4-3.3H77.9c-1.8 0-3.3 1.5-3.3 3.3V52c-6.7 1.6-12 7.2-12.7 13.8-.4 3.7-.4 7.5-.4 11.2v10.7h54.8v-9.8H152c1.1 0 1.4.1 1.8.8.5 1 2 1.6 2.9 1.6 2.4 0 4.8.1 7.3.1h6c2.2 0 3.6-1.5 3.6-3.7-.1-2.4-.1-5.1-.1-7.8zm-95-20.1h19.6v8.6H78.5zM155.4 132.4c-1.9-5.3-6.8-8.7-12.4-8.8H34.6c-3.4 0-6.4 1.3-8.9 3.8-4 3.9-5.1 9.6-3 14.5 2.3 5.4 6.6 8.2 12.3 8.2h107.3c3.6 0 6.6-1 9.1-3.1 4.3-3.6 5.9-9.3 4-14.6zM43.2 144.7c-4.3 0-7.8-3.5-7.8-7.8s3.5-7.8 7.8-7.8 7.8 3.5 7.8 7.8-3.5 7.8-7.8 7.8zm22.9 0c-4.3 0-7.8-3.5-7.8-7.8s3.5-7.8 7.8-7.8 7.8 3.5 7.8 7.8-3.5 7.8-7.8 7.8zm22.9 0c-4.3 0-7.8-3.5-7.8-7.8s3.5-7.8 7.8-7.8 7.8 3.5 7.8 7.8-3.5 7.8-7.8 7.8zm22.9 0c-4.3 0-7.8-3.5-7.8-7.8s3.5-7.8 7.8-7.8 7.8 3.5 7.8 7.8-3.5 7.8-7.8 7.8zm22.9 0c-4.3 0-7.8-3.5-7.8-7.8s3.5-7.8 7.8-7.8 7.8 3.5 7.8 7.8-3.5 7.8-7.8 7.8z" fill="#000000" opacity="1" data-original="#000000" class=""></path></g></svg>