<svg xmlns="http://www.w3.org/2000/svg" version="1.1" xmlns:xlink="http://www.w3.org/1999/xlink" width="32" height="32" viewBox="0 0 68 68">
    <path d="M49.024 45.712c-6.167-6.8-7.986-13.094-8.396-17.304 1.68-6.602-.371-14.301-5.989-19.919C26.552.402 14.131-.306 6.909 6.916-.306 14.13.402 26.55 8.49 34.638c5.621 5.621 13.326 7.671 19.928 5.988 4.211.412 10.502 2.234 17.297 8.397.03-.04.06-.08.1-.11l3.1-3.1c.04-.04.07-.07.11-.1zM15.965 34.747l2.17-2.17 2.727 2.727-.891.891a16.491 16.491 0 0 1-4.006-1.448zm-4.017-2.85 2.754-2.753 2.726 2.726-2.377 2.377a17.56 17.56 0 0 1-3.103-2.35zM8.889 28.09l2.379-2.38 2.727 2.728-2.755 2.754A17.539 17.539 0 0 1 8.89 28.09zm-1.95-4.919.895-.894 2.727 2.727-2.172 2.172a16.5 16.5 0 0 1-1.45-4.005zm-.315-2.104.503.503-.408.408a15.39 15.39 0 0 1-.095-.91zM7.426 15l3.135 3.135-2.727 2.727-1.256-1.256c.028-1.587.306-3.144.848-4.606zm2.616-4.25 3.952 3.951-2.726 2.727-3.425-3.425a12.73 12.73 0 0 1 2.2-3.254zm3.964-2.905 3.422 3.423-2.727 2.726-3.951-3.951c.985-.91 2.079-1.648 3.256-2.198zm5.606-1.26 1.25 1.25-2.727 2.726-3.132-3.133a13.955 13.955 0 0 1 4.61-.844zm7.557 1.81-2.166 2.166-2.727-2.727.888-.888c1.364.298 2.71.784 4.005 1.449zm4.016 2.851-2.748 2.748-2.727-2.726 2.372-2.373a17.549 17.549 0 0 1 3.103 2.351zm3.056 3.812-2.37 2.37-2.727-2.727 2.747-2.747a17.56 17.56 0 0 1 2.35 3.104zm1.948 4.92-.885.885-2.727-2.728 2.164-2.163a16.493 16.493 0 0 1 1.448 4.006zm.313 2.082-.49-.49.397-.398c.042.296.07.592.093.888zm-.796 6.072-3.128-3.129 2.726-2.726 1.246 1.245a13.948 13.948 0 0 1-.844 4.61zm-6.574 7.16L25.71 31.87l2.727-2.726 3.948 3.949a12.72 12.72 0 0 1-3.253 2.199zm-5.604 1.264-1.252-1.252 2.727-2.727 3.132 3.132c-1.463.541-3.02.82-4.607.847zm-2.666-14.987-2.727 2.727-2.726-2.727 2.726-2.726zm-2.02-3.434 2.727-2.727 2.727 2.727-2.727 2.727zm2.727 4.141 2.727 2.727-2.727 2.727-2.727-2.727zm.707-.707 2.727-2.727 2.727 2.727-2.727 2.727zm3.434-3.434 2.727-2.727 2.726 2.727-2.726 2.727zm-.707-.707-2.727-2.727 2.727-2.726L27.73 14.7zm-3.434-3.434-2.727-2.726L21.57 8.54l2.727 2.727zm-.707.707-2.727 2.727-2.726-2.727 2.726-2.726zm-3.434 3.434-2.726 2.727-2.727-2.727 2.726-2.727zm-3.433 3.434-2.727 2.727-2.727-2.727 2.727-2.727zm.707.707 2.726 2.727-2.726 2.727-2.727-2.727zm3.433 3.434 2.727 2.727-2.727 2.726-2.726-2.726zm3.434 3.434 2.727 2.726-2.727 2.727-2.727-2.727zm3.434 2.02-2.727-2.727 2.727-2.727 2.727 2.727zm.707-6.16 2.727-2.728 2.727 2.727-2.727 2.727zm3.434-3.435 2.726-2.726 2.727 2.727-2.726 2.726zM21.569 7.127l-.495-.495c.299.024.598.051.897.093zm0 28.884.498.499c-.3-.024-.601-.053-.902-.095zm11.523-3.626-3.948-3.948 2.727-2.727 3.418 3.419a12.712 12.712 0 0 1-2.197 3.256zm5.742 8.377a33.792 33.792 0 0 0-5.296-2.378c.95-.62 1.853-1.33 2.681-2.158.83-.83 1.542-1.735 2.164-2.688a33.72 33.72 0 0 0 2.381 5.294c.69 1.25-.68 2.62-1.93 1.93zM65.474 59.508l-12.98-12.98a2.033 2.033 0 0 0-2.871-.007l-3.102 3.101a2.033 2.033 0 0 0 .007 2.87l12.98 12.982c.792.79 2.08.798 2.871.007l3.102-3.102a2.033 2.033 0 0 0-.007-2.871zM12.124 43.102c-2.55 3.37-3.93 7.91-4.97 12.8l.85.83 6.13-12.32-.25-.97c-.21-.8-1.26-1-1.76-.34zM9.554 58.233l9.14-9.14-.64-2.45c-.1-.35-.37-.62-.71-.71l-2.46-.65c-.02-.01-.04-.01-.06-.03l-6.07 12.2zM23.214 53.633v-.01s-.01 0-.01-.01l-.64-2.46a.983.983 0 0 0-.71-.71l-2.45-.64-9.14 9.13.78.75zM25.044 54.613l-1.01-.27-12.22 6.08.99.97c4.83-1.04 9.25-2.49 12.59-5.02.66-.5.46-1.55-.35-1.76zM8.844 58.943l-2.19-2.13-1.98 1.98a3.615 3.615 0 0 0 0 5.11 3.616 3.616 0 0 0 5.11 0l2.05-2.05-2.28-2.21z" fill="currentColor"/>
</svg>