<?xml version="1.0" encoding="UTF-8"?>
<svg id="Layer_1" data-name="Layer 1" xmlns="http://www.w3.org/2000/svg" xmlns:xlink="http://www.w3.org/1999/xlink" viewBox="0 0 460 460">
  <defs>
    <style>
      .cls-1 {
        fill: url(#linear-gradient-2);
      }

      .cls-2 {
        fill: #fff;
      }

      .cls-3 {
        fill: lime;
      }

      .cls-4 {
        fill: #f0f;
      }

      .cls-5 {
        fill: url(#linear-gradient-3);
      }

      .cls-6 {
        fill: url(#linear-gradient);
      }
    </style>
    <linearGradient id="linear-gradient" x1="30.82" y1="303.99" x2="409.28" y2="139.36" gradientUnits="userSpaceOnUse">
      <stop offset="0" stop-color="#08003f"/>
      <stop offset=".09" stop-color="#0a0a3d"/>
      <stop offset=".25" stop-color="#11253a"/>
      <stop offset=".46" stop-color="#1d5135"/>
      <stop offset=".7" stop-color="#2d8e2d"/>
      <stop offset=".98" stop-color="#42dc24"/>
      <stop offset="1" stop-color="#44e324"/>
    </linearGradient>
    <linearGradient id="linear-gradient-2" x1="432.75" y1="148.12" x2="497.97" y2="119.75" gradientTransform="translate(-827.22 49.88) rotate(-10.44) scale(2.06 1.4)" xlink:href="#linear-gradient"/>
    <linearGradient id="linear-gradient-3" x1="-125.13" y1="152.54" x2="-41.71" y2="116.25" gradientTransform="translate(166.34 207.22) rotate(98.95) scale(1.05 .97)" xlink:href="#linear-gradient"/>
  </defs>
  <path class="cls-4" d="m458.68,204.8h-3.75v-.04h2.68c.36,0,.72.02,1.07.04Z"/>
  <path class="cls-4" d="m460,221.77c-.77.14-1.56.21-2.39.21h-2.68v-.23h4.44c.21,0,.42,0,.63.02Z"/>
  <path class="cls-3" d="m458.68,204.8h-3.75v-.04h2.68c.36,0,.72.02,1.07.04Z"/>
  <path class="cls-3" d="m460,221.77c-.77.14-1.56.21-2.39.21h-2.68v-.23h4.44c.21,0,.42,0,.63.02Z"/>
  <g>
    <path class="cls-6" d="m334.2,87.68l-223.62.26c-11.88,0-22.62,3.55-30.4,9.3-7.79,5.74-12.6,13.67-12.6,22.43v324.46c0,8.73,9.57,15.84,21.4,15.86,23.8.04,43.1-14.18,43.1-31.73v-94.16c0-9.33,10.25-16.89,22.9-16.89h179.22c52.54,0,95.13-31.42,95.13-70.19v-89.16c0-38.7-42.68-70.19-95.13-70.19Zm20.8,142.32c0,21.15-25.4,26.81-54.06,26.81h-126.42c-24.59,0-20.87-.83-20.87-18.98v-66.39c0-18.14,2.09-18.94,26.68-18.94h126.42c28.65,0,48.25,9.64,48.25,22.11v55.39Z"/>
    <ellipse class="cls-1" cx="148.05" cy="61.41" rx="96.83" ry="29.41" transform="translate(-7.99 98.05) rotate(-35.74)"/>
    <ellipse class="cls-5" cx="50.7" cy="99.16" rx="18.88" ry="53.58" transform="translate(-59.88 112.39) rotate(-69.74)"/>
    <g>
      <path class="cls-2" d="m40.08,90.39l-4.75,3.66c-2.35,1.8-4.05,3.01-5.08,3.63-1.04.61-2.11,1.05-3.23,1.3-1.63.36-3.14.22-4.54-.43-1.47-.69-2.35-1.73-2.62-3.12-.27-1.39.1-2.85,1.13-4.39,1.37-2.05,3.3-3.51,5.77-4.36,1.34-.46,2.76-.67,4.28-.63,1.51.05,2.85.34,4.01.88.56.26.92.6,1.08,1.01.17.42.11.84-.18,1.26-.3.44-.72.71-1.26.81-.32.06-.8-.02-1.43-.24-1.48-.52-2.84-.72-4.06-.59-1.02.11-1.97.42-2.87.95-.89.52-1.61,1.18-2.14,1.97-.54.81-.77,1.54-.68,2.21.09.67.47,1.16,1.15,1.48.86.4,1.85.37,2.98-.08,1.13-.46,2.71-1.46,4.74-3.03l9.89-7.6-1.15-.54c-.97-.46-1.22-1.03-.76-1.73.33-.49.76-.8,1.28-.91.52-.11,1.1-.02,1.72.27l4.03,1.88c1.35.63,2.18,1.36,2.47,2.19s.07,1.79-.66,2.89c-.89,1.34-2.13,2.2-3.7,2.58-1.14.28-2.47.06-3.98-.65l-1.45-.68Zm2.77-2.13l.86.4c1.13.53,2.01.32,2.64-.63.36-.54.22-.96-.42-1.26l-.71-.33-2.37,1.82Z"/>
      <path class="cls-2" d="m50.31,94.61c1.02-.07,1.77.01,2.25.23.68.32,1.1.77,1.28,1.36.17.59.06,1.19-.35,1.79-.24.36-.59.72-1.05,1.07l-3.02,2.34,1.22.57c.89.42,1.12.95.68,1.59-.3.44-.68.72-1.16.82-.48.1-1,.02-1.56-.24l-2.13-.99c-.45-.21-.74-.52-.87-.93-.13-.41-.06-.81.19-1.19.18-.26.48-.56.91-.89l2.62-2.01c.33-.26.55-.47.65-.63.28-.41.15-.75-.39-1-.72-.34-1.75.01-3.09,1.05l-3.19,2.45c-1.01.78-1.88,1-2.61.65-.29-.14-.47-.35-.55-.63-.08-.28-.03-.56.15-.83.14-.2.35-.42.64-.65l.31-.24,12.43-9.56c1.07-.82,1.96-1.06,2.66-.74.29.14.47.35.54.65.07.3.02.59-.17.87-.16.23-.48.54-.97.91l-5.42,4.17Z"/>
      <path class="cls-2" d="m59.88,106.31l1.16.54c.89.42,1.12.94.69,1.58-.3.44-.69.72-1.17.82-.49.1-1.01.03-1.56-.24l-1.35-.63c-.61-.28-.86-.72-.75-1.31-.85.24-1.53.25-2.02.02l-1.21-.56c-.78-.36-1.21-.94-1.3-1.73-.09-.79.17-1.65.79-2.58.93-1.4,2.24-2.43,3.91-3.09,1.67-.67,3.09-.72,4.27-.17.9.42,1.35,1.05,1.33,1.9.72-.38,1.36-.44,1.93-.17.31.14.5.37.57.67.07.3,0,.6-.19.9-.14.2-.36.42-.66.65l-.31.24-4.12,3.18Zm-3.87-1.74l.26.12c.58.27,1.13.21,1.64-.19l2-1.54c.26-.2.45-.39.56-.55.13-.2.15-.41.06-.64-.09-.23-.26-.41-.53-.53-.51-.24-1.22-.17-2.12.22-.9.39-1.57.92-2.01,1.58-.5.75-.46,1.26.13,1.53Z"/>
      <path class="cls-2" d="m70.92,111.47l1.27.59c.89.42,1.13.95.69,1.6-.3.44-.69.72-1.17.81-.48.1-1,.02-1.56-.24l-2.21-1.03c-.43-.2-.7-.51-.81-.91-.11-.41-.03-.81.24-1.22.17-.25.51-.57,1.04-.98l2.52-1.95c.26-.2.45-.38.56-.53.12-.17.16-.35.09-.54-.06-.19-.21-.34-.43-.45-.73-.34-1.69-.05-2.89.87l-3.36,2.58c-1.02.79-1.89,1.01-2.63.66-.3-.14-.5-.36-.58-.65-.08-.29-.03-.57.15-.85.14-.2.36-.42.66-.65l.31-.24,5.77-4.44c.75-.58,1.45-.71,2.11-.4.54.25.77.68.67,1.29,1.15-.24,2.07-.21,2.76.11.66.31,1.08.76,1.24,1.36.17.59.05,1.19-.35,1.8-.22.33-.55.67-.97.99l-3.11,2.4Z"/>
      <path class="cls-2" d="m77.16,114.39l1.19.56c.89.42,1.12.95.68,1.6-.3.44-.68.72-1.16.82-.48.1-1,.02-1.56-.24l-1.68-.79c-.62-.29-1.02-.65-1.2-1.08-.18-.43-.12-.87.18-1.32.16-.24.44-.51.83-.81l4.71-3.62.32-.25c.87-.67,1.67-.84,2.39-.5.3.14.48.36.56.66.08.3.02.6-.17.88-.16.23-.49.54-1,.94l-4.09,3.16Zm7.71-8.8c.41.19.66.5.74.93.09.43,0,.85-.29,1.28-.28.42-.66.71-1.15.88-.48.16-.93.15-1.34-.05-.41-.19-.66-.5-.75-.93-.09-.43,0-.85.29-1.28s.66-.71,1.15-.87c.48-.16.93-.15,1.34.04Z"/>
    </g>
    <g>
      <path class="cls-2" d="m102.2,93.56c.96,2.49,2.33,4.4,4.1,5.74,1.26.96,2.44,1.42,3.54,1.38,1.09-.04,2.28-.58,3.56-1.64l6.89-5.66c1.14-.94,2.11-1.1,2.93-.48.59.45.85.96.78,1.54-.07.58-.46,1.17-1.19,1.77l-7.18,5.9c-1.2.98-2.33,1.64-3.39,1.97-1.48.45-3.01.53-4.59.24-1.58-.29-3.01-.93-4.3-1.91-1.73-1.31-3.29-3.29-4.69-5.93l-.69.57-.32.26c-.92.76-1.8.83-2.63.2-.52-.39-.77-.88-.75-1.47.02-.58.3-1.1.85-1.55l.33-.27,1.8-1.48c-.55-1.59-.81-3.36-.75-5.3.09-2.46,1.06-4.46,2.92-5.98,1.22-1,2.63-1.54,4.21-1.6,1.59-.06,2.99.37,4.21,1.29,1.74,1.32,2.3,2.96,1.68,4.93-.42,1.33-1.78,2.94-4.07,4.82l-3.23,2.66Zm-1.26-3.86l2.4-1.97c2.06-1.69,2.51-2.97,1.36-3.84-.36-.27-.79-.39-1.29-.34-.5.05-.95.24-1.37.58-.64.52-1.05,1.29-1.25,2.3-.2,1.01-.15,2.1.15,3.28Z"/>
      <path class="cls-2" d="m116.33,81.16c.37-1.09.84-1.86,1.4-2.32.79-.65,1.67-1.01,2.64-1.08.97-.07,1.82.17,2.53.71.43.33.8.77,1.12,1.31l2.1,3.64,1.42-1.17c1.04-.85,1.94-.99,2.72-.41.53.4.75.86.68,1.39-.07.52-.44,1.06-1.1,1.6l-2.49,2.04c-.53.43-1.13.68-1.81.73-.67.06-1.24-.09-1.7-.44-.31-.24-.61-.61-.91-1.14l-1.79-3.16c-.23-.4-.44-.67-.63-.81-.49-.37-1.05-.3-1.68.21-.84.69-.8,1.84.13,3.46l2.18,3.84c.7,1.22.61,2.18-.24,2.88-.34.28-.74.43-1.2.46-.46.03-.86-.08-1.18-.32-.24-.18-.47-.45-.67-.8l-.21-.38-8.54-14.96c-.72-1.29-.67-2.27.14-2.94.34-.28.75-.43,1.23-.45s.89.1,1.23.35c.28.21.58.61.91,1.2l3.72,6.53Z"/>
      <path class="cls-2" d="m138.4,73.35l1.36-1.12c1.04-.85,1.94-.99,2.7-.42.53.4.75.86.68,1.4-.07.53-.44,1.06-1.09,1.6l-1.59,1.3c-.71.58-1.48.76-2.32.53-.04.95-.35,1.66-.93,2.13l-1.41,1.16c-.91.75-1.98,1.09-3.22,1.04-1.24-.06-2.4-.5-3.5-1.33-1.66-1.26-2.6-2.83-2.82-4.72-.22-1.89.36-3.4,1.74-4.53,1.06-.87,2.21-1.21,3.47-1.03-.24-.83-.02-1.52.65-2.07.36-.3.79-.46,1.27-.47.49-.02.91.11,1.26.38.24.18.47.46.67.82l.21.38,2.84,4.96Zm-4.43,3.74l.31-.25c.68-.56.84-1.15.48-1.77l-1.38-2.41c-.18-.32-.37-.55-.57-.7-.23-.18-.55-.24-.94-.19-.39.05-.74.2-1.05.45-.6.5-.82,1.26-.65,2.28.17,1.02.64,1.83,1.43,2.43.89.67,1.68.73,2.37.17Z"/>
      <path class="cls-2" d="m135.98,57.59c.48-.39,1.06-.6,1.75-.61.69,0,1.28.18,1.78.56.5.38.76.84.78,1.38.02.54-.22,1.01-.69,1.4-.48.39-1.06.6-1.75.61-.69,0-1.28-.18-1.78-.56-.5-.38-.76-.84-.78-1.38-.02-.54.22-1.01.69-1.4Zm9.6,9.85l1.4-1.15c1.04-.85,1.94-.99,2.72-.41.53.4.75.86.68,1.39-.07.52-.44,1.06-1.1,1.6l-1.97,1.62c-.73.6-1.45.95-2.18,1.06s-1.36-.04-1.9-.45c-.29-.22-.56-.56-.83-1.04l-3.23-5.67-.23-.39c-.6-1.05-.48-1.92.37-2.62.35-.28.77-.44,1.26-.46.49-.02.91.09,1.25.35.28.21.59.62.94,1.24l2.82,4.93Z"/>
      <path class="cls-2" d="m148.47,53.87l.38-.32c1.05-.86,1.96-1,2.73-.42.53.4.75.86.68,1.39-.08.53-.44,1.06-1.09,1.6l-.9.74,2.61,4.59,1.39-1.14c1.05-.86,1.96-1,2.73-.42.53.4.75.86.68,1.39-.07.52-.44,1.06-1.1,1.6l-2.22,1.82c-.63.52-1.28.81-1.95.88s-1.26-.09-1.78-.48c-.32-.24-.6-.57-.84-.99l-.34-.62-2.31-4.06-.19.15c-.93.76-1.76.85-2.52.28-.54-.41-.77-.87-.7-1.4.07-.53.43-1.06,1.09-1.61l.57-.47-1.04-1.83-.21-.38c-.57-1.05-.44-1.91.39-2.6.34-.28.75-.43,1.23-.45.48-.02.89.1,1.23.35.33.25.64.65.93,1.21l.57,1.15Z"/>
      <path class="cls-2" d="m165.81,50.82l1.36-1.12c1.04-.85,1.94-.99,2.7-.42.53.4.75.86.68,1.4-.07.53-.44,1.06-1.09,1.6l-1.59,1.3c-.71.58-1.48.76-2.32.53-.04.95-.35,1.66-.93,2.13l-1.41,1.16c-.91.75-1.98,1.09-3.22,1.04-1.24-.06-2.4-.5-3.5-1.33-1.66-1.26-2.6-2.83-2.82-4.72-.22-1.89.36-3.4,1.74-4.53,1.06-.87,2.21-1.21,3.47-1.03-.24-.83-.02-1.52.65-2.07.36-.3.79-.46,1.27-.47.49-.02.91.11,1.26.38.24.18.47.46.67.82l.21.38,2.84,4.96Zm-4.43,3.74l.31-.25c.68-.56.84-1.15.48-1.77l-1.38-2.41c-.18-.32-.37-.55-.57-.7-.23-.18-.55-.24-.94-.19-.39.05-.74.2-1.05.45-.6.49-.82,1.26-.65,2.28.17,1.02.64,1.83,1.43,2.43.89.67,1.68.73,2.37.17Z"/>
      <path class="cls-2" d="m178.74,40.2l1.49-1.22c1.05-.86,1.96-1,2.73-.42.53.4.75.86.67,1.39-.08.53-.44,1.06-1.09,1.6l-2.59,2.13c-.5.41-1.09.64-1.75.68-.66.04-1.24-.12-1.72-.49-.29-.22-.62-.65-.98-1.29l-1.74-3.04c-.18-.32-.35-.55-.53-.69-.2-.16-.46-.23-.77-.2-.32.03-.61.15-.87.37-.85.7-.86,1.77-.04,3.21l2.3,4.05c.7,1.22.62,2.19-.24,2.9-.35.29-.77.46-1.24.49-.47.03-.87-.07-1.2-.32-.24-.18-.47-.46-.67-.82l-.21-.38-3.96-6.95c-.52-.9-.39-1.67.39-2.31.64-.52,1.38-.67,2.24-.45.17-1.26.66-2.22,1.46-2.88.78-.64,1.65-.99,2.62-1.05.97-.06,1.81.18,2.53.72.4.3.74.71,1.04,1.22l2.14,3.75Z"/>
      <path class="cls-2" d="m193.05,33.75l1.44-1.18c1.05-.86,1.96-1,2.73-.42.53.4.76.86.68,1.39-.07.52-.44,1.06-1.1,1.6l-2.01,1.65c.5.76,1.06,1.86,1.66,3.31,1.07,2.53.57,4.65-1.51,6.36-1.26,1.04-2.74,1.6-4.43,1.67-1.69.08-3.15-.35-4.38-1.28-.86-.65-1.42-1.44-1.69-2.39-.27-.94-.22-1.87.17-2.77.45-1.04,1.53-2.26,3.24-3.67l2.02-1.66-.58-1c-.34.7-.77,1.27-1.28,1.69-.88.73-1.83,1.14-2.86,1.23-1.02.09-1.91-.14-2.66-.71-.46-.35-.97-1.01-1.53-2l-2.14-3.75-.23-.39c-.58-1.07-.46-1.94.38-2.63.36-.3.79-.46,1.27-.47.49-.02.91.12,1.29.4.25.19.55.59.9,1.19l1.89,3.34c.31.54.54.86.68.98.4.34.87.29,1.4-.15.38-.31.65-.72.81-1.22.16-.5.15-.91-.04-1.22l-2.58-4.57-.24-.38c-.59-1.06-.46-1.93.38-2.63.36-.3.79-.45,1.28-.47.49-.01.92.12,1.28.39.25.19.48.46.68.81l.2.39,4.87,8.55Zm-1.22,5.47l-1.73,1.42c-1.9,1.56-2.23,2.81-.98,3.75.44.33.93.5,1.45.48.53,0,1.01-.2,1.45-.55.6-.5.89-1.12.86-1.88-.03-.76-.38-1.83-1.05-3.23Z"/>
      <path class="cls-2" d="m202.3,20.84l1.36-1.12c1.04-.85,1.94-.99,2.7-.42.53.4.75.86.68,1.4-.07.53-.44,1.06-1.09,1.6l-1.59,1.3c-.71.58-1.48.76-2.32.53-.04.95-.35,1.66-.93,2.13l-1.41,1.16c-.91.75-1.98,1.09-3.22,1.04-1.24-.06-2.4-.5-3.5-1.33-1.66-1.26-2.6-2.83-2.82-4.72-.22-1.89.36-3.4,1.74-4.53,1.06-.87,2.21-1.21,3.47-1.03-.24-.83-.02-1.52.65-2.07.36-.3.79-.46,1.27-.47.49-.02.91.11,1.26.38.24.18.47.46.67.82l.21.38,2.84,4.96Zm-4.43,3.74l.31-.25c.68-.56.84-1.15.48-1.77l-1.38-2.41c-.18-.32-.37-.55-.57-.7-.23-.18-.55-.24-.94-.19-.39.05-.74.2-1.05.45-.6.5-.82,1.26-.65,2.28.16,1.03.64,1.83,1.43,2.43.89.67,1.68.73,2.37.17Z"/>
    </g>
  </g>
</svg>